# Blender 3.6.5
# www.blender.org
mtllib n.mtl
o n
v 0.042702 0.581926 -0.017486
v 0.032692 0.640917 -0.017344
v 0.034957 0.583642 -0.039224
v 0.041776 0.622541 0.013047
v 0.038351 0.671255 0.036557
v 0.033581 0.691242 0.013746
v 0.026351 0.710216 0.036007
v 0.032075 0.705831 0.047433
v 0.034027 0.700429 0.061519
v 0.045045 0.572551 -0.001104
v 0.041669 0.603212 0.037003
v 0.044243 0.557325 0.013174
v 0.028557 0.694531 0.076974
v 0.026957 0.526070 0.037983
v 0.038403 0.652225 0.053844
v -0.041664 0.603212 0.037003
v 0.024418 0.561121 0.062265
v -0.024414 0.561121 0.062265
v 0.015773 0.551192 0.069352
v 0.016833 0.522908 0.043591
v -0.016829 0.522908 0.043591
v -0.015769 0.551192 0.069352
v -0.026952 0.526070 0.037983
v -0.044238 0.557325 0.013174
v -0.045041 0.572551 -0.001104
v -0.041771 0.622541 0.013047
v -0.042698 0.581926 -0.017486
v -0.038399 0.652225 0.053844
v -0.038347 0.671255 0.036557
v -0.032688 0.640917 -0.017344
v -0.034953 0.583642 -0.039224
v -0.033576 0.691242 0.013746
v -0.026347 0.710216 0.036007
v -0.032071 0.705831 0.047433
v -0.034023 0.700429 0.061519
v -0.028552 0.694531 0.076974
v -0.028593 0.652289 0.071144
v -0.015758 0.651813 0.081787
v -0.012386 0.690825 0.086695
v 0.012391 0.690825 0.086695
v 0.015763 0.651813 0.081787
v 0.028597 0.652289 0.071144
v 0.025148 0.637384 -0.029558
v 0.027748 0.583572 -0.051737
v 0.012668 0.635307 -0.037021
v 0.014341 0.584669 -0.059010
v -0.012664 0.635307 -0.037021
v -0.014336 0.584669 -0.059010
v -0.027743 0.583572 -0.051737
v -0.025144 0.637384 -0.029558
v 0.000002 0.712519 0.029964
v 0.000002 0.691951 0.007365
vn 0.9639 0.1507 -0.2196
vn 0.9556 0.1627 -0.2457
vn 0.9695 0.1378 -0.2026
vn 0.9907 0.0987 -0.0941
vn 0.9904 0.1235 -0.0618
vn 0.9750 0.1673 -0.1463
vn 0.9527 0.2922 -0.0840
vn 0.9604 0.2675 -0.0779
vn 0.9856 0.0013 0.1693
vn 0.9984 0.0481 0.0292
vn 0.4960 -0.0154 0.8682
vn 0.9485 -0.1133 0.2957
vn 0.7790 -0.0485 0.6251
vn 0.8732 -0.2275 0.4310
vn 0.4659 -0.3738 0.8020
vn -0.4960 -0.0154 0.8682
vn 0.4611 0.2736 0.8441
vn -0.4612 0.2736 0.8441
vn 0.2001 -0.3511 0.9147
vn 0.2360 -0.6336 0.7368
vn -0.2360 -0.6336 0.7368
vn -0.2001 -0.3510 0.9147
vn -0.8732 -0.2275 0.4310
vn -0.9485 -0.1133 0.2957
vn -0.9984 0.0481 0.0293
vn -0.9907 0.0987 -0.0941
vn -0.9639 0.1507 -0.2196
vn -0.4658 -0.3738 0.8020
vn -0.9904 0.1235 -0.0618
vn -0.9695 0.1378 -0.2026
vn -0.9556 0.1627 -0.2458
vn -0.9750 0.1673 -0.1463
vn -0.9527 0.2922 -0.0840
vn -0.9604 0.2676 -0.0779
vn -0.9856 0.0013 0.1693
vn -0.7790 -0.0485 0.6251
vn -0.3726 -0.8525 0.3667
vn -0.2350 -0.4796 0.8455
vn -0.2395 -0.1134 0.9643
vn 0.2395 -0.1134 0.9643
vn 0.2351 -0.4796 0.8454
vn 0.3726 -0.8525 0.3667
vn 0.6940 0.2983 -0.6552
vn 0.8170 0.2432 -0.5229
vn 0.5889 -0.4367 -0.6801
vn 0.1830 0.3947 -0.9004
vn 0.1661 0.1661 -0.9720
vn -0.1830 0.3947 -0.9004
vn -0.1661 0.1661 -0.9720
vn -0.5889 -0.4367 -0.6801
vn -0.6940 0.2983 -0.6552
vn -0.8170 0.2432 -0.5229
vn -0.0000 -0.9981 -0.0616
vn -0.0000 -0.9452 -0.3264
vn -0.0000 -0.7765 -0.6302
vn -0.0000 -0.6519 -0.7583
vn -0.0000 -0.6298 -0.7767
vn -0.0000 -0.6299 -0.7767
vn -0.0000 -0.8710 -0.4913
vn -0.0000 0.9343 0.3565
vn -0.0000 0.9344 0.3562
vn -0.0000 0.9340 0.3574
vn -0.0001 0.9337 0.3581
vn 0.0001 0.9337 0.3581
vn -0.0000 0.9228 -0.3854
vn 0.1524 0.8491 -0.5057
vn -0.1524 0.8491 -0.5057
vn -0.0000 0.6014 -0.7989
vn 0.1722 0.6362 -0.7521
vn -0.1722 0.6362 -0.7521
vn 0.0307 0.6091 -0.7925
vn -0.0307 0.6092 -0.7925
vn -0.0000 0.9610 -0.2765
vn -0.0000 0.9612 -0.2759
vn -0.0000 0.9634 -0.2681
vt 0.806708 0.094860
vt 0.798423 0.095100
vt 0.803923 0.073788
vt 0.816478 0.078876
vt 0.821261 0.059712
vt 0.811376 0.054241
vt 0.816952 0.045179
vt 0.821442 0.046122
vt 0.826561 0.046566
vt 0.812677 0.097324
vt 0.826800 0.084770
vt 0.817341 0.102304
vt 0.832525 0.046570
vt 0.827679 0.115355
vt 0.829334 0.065376
vt 0.859085 0.086467
vt 0.833930 0.101610
vt 0.850226 0.102467
vt 0.836722 0.104693
vt 0.833847 0.117756
vt 0.848622 0.118531
vt 0.847126 0.105240
vt 0.855003 0.116788
vt 0.866651 0.104893
vt 0.871813 0.100423
vt 0.869964 0.081684
vt 0.878005 0.098603
vt 0.858592 0.066915
vt 0.867213 0.062124
vt 0.882981 0.077938
vt 0.886222 0.099709
vt 0.877615 0.057716
vt 0.873015 0.048120
vt 0.868452 0.048589
vt 0.863316 0.048496
vt 0.857389 0.047872
vt 0.854233 0.062704
vt 0.849656 0.060138
vt 0.850029 0.046300
vt 0.840007 0.045776
vt 0.838927 0.059575
vt 0.834105 0.061648
vt 0.820805 0.183345
vt 0.825302 0.185962
vt 0.806663 0.198361
vt 0.802175 0.195293
vt 0.817170 0.179083
vt 0.801152 0.189976
vt 0.811568 0.170733
vt 0.795409 0.181416
vt 0.790883 0.178453
vt 0.809004 0.165754
vt 0.789745 0.173137
vt 0.808291 0.160599
vt 0.800087 0.199844
vt 0.785880 0.178656
vt 0.795242 0.206495
vt 0.777886 0.180614
vt 0.790135 0.210951
vt 0.771829 0.183647
vt 0.783736 0.214887
vt 0.765755 0.188071
vt 0.768179 0.217724
vt 0.757223 0.201386
vt 0.764188 0.215955
vt 0.757347 0.205755
vt 0.833213 0.032925
vt 0.836668 0.017901
vt 0.836874 0.026941
vt 0.832738 0.012091
vt 0.827221 0.035060
vt 0.826656 0.010233
vt 0.821697 0.034546
vt 0.821167 0.011000
vt 0.815073 0.022917
vt 0.816906 0.032558
vt 0.816476 0.013203
vt 0.804324 0.023153
vt 0.805905 0.035484
vt 0.805365 0.010762
vt 0.784075 0.035568
vt 0.783560 0.011619
vt 0.779370 0.032868
vt 0.778981 0.014518
vt 0.776447 0.028373
vt 0.776251 0.019132
s 1
usemtl S_Blue.002
f 1/1/1 3/2/2 2/3/3
f 1/1/1 2/3/3 4/4/4
f 2/3/3 5/5/5 4/4/4
f 2/3/3 6/6/6 5/5/5
f 7/7/7 5/5/5 6/6/6
f 7/7/7 8/8/8 5/5/5
f 8/8/8 9/9/9 5/5/5
f 4/4/4 10/10/10 1/1/1
f 10/10/10 4/4/4 11/11/11
f 10/10/10 11/11/11 12/12/12
f 9/9/9 13/13/13 5/5/5
f 14/14/14 12/12/12 11/11/11
f 4/4/4 5/5/5 15/15/15
f 5/5/5 13/13/13 15/15/15
f 4/4/4 15/15/15 11/11/11
f 15/15/15 16/16/16 11/11/11
f 14/14/14 11/11/11 17/17/17
f 11/11/11 16/16/16 18/18/18
f 11/11/11 18/18/18 17/17/17
f 14/14/14 17/17/17 19/19/19
f 14/14/14 19/19/19 20/20/20
f 19/19/19 21/21/21 20/20/20
f 17/17/17 22/22/22 19/19/19
f 19/19/19 22/22/22 21/21/21
f 17/17/17 18/18/18 22/22/22
f 23/23/23 21/21/21 22/22/22
f 23/23/23 22/22/22 18/18/18
f 23/23/23 18/18/18 16/16/16
f 23/23/23 16/16/16 24/24/24
f 25/25/25 24/24/24 16/16/16
f 25/25/25 16/16/16 26/26/26
f 26/26/26 27/27/27 25/25/25
f 15/15/15 28/28/28 16/16/16
f 26/26/26 16/16/16 28/28/28
f 26/26/26 28/28/28 29/29/29
f 27/27/27 26/26/26 30/30/30
f 30/30/30 26/26/26 29/29/29
f 27/27/27 30/30/30 31/31/31
f 30/30/30 29/29/29 32/32/32
f 33/33/33 32/32/32 29/29/29
f 33/33/33 29/29/29 34/34/34
f 34/34/34 29/29/29 35/35/35
f 35/35/35 29/29/29 36/36/36
f 29/29/29 28/28/28 36/36/36
f 28/28/28 37/37/37 36/36/36
f 36/36/36 37/37/37 38/38/38
f 36/36/36 38/38/38 39/39/39
f 40/40/40 39/39/39 38/38/38
f 40/40/40 38/38/38 41/41/41
f 41/41/41 38/38/38 37/37/37
f 13/13/13 40/40/40 41/41/41
f 41/41/41 37/37/37 42/42/42
f 13/13/13 41/41/41 42/42/42
f 42/42/42 37/37/37 28/28/28
f 13/13/13 42/42/42 15/15/15
f 42/42/42 28/28/28 15/15/15
f 43/43/43 2/44/44 3/45/44
f 43/43/43 3/45/44 44/46/45
f 45/47/46 43/43/43 44/46/45
f 45/47/46 44/46/45 46/48/47
f 46/48/47 47/49/48 45/47/46
f 46/48/47 48/50/49 47/49/48
f 47/49/48 48/50/49 49/51/50
f 47/49/48 49/51/50 50/52/51
f 50/52/51 49/51/50 31/53/52
f 50/52/51 31/53/52 30/54/52
f 44/46/45 49/51/50 48/50/49
f 44/46/45 48/50/49 46/48/47
f 3/55/53 49/51/50 44/46/45
f 3/55/53 31/56/53 49/51/50
f 1/57/54 31/56/53 3/55/53
f 1/57/54 27/58/54 31/56/53
f 10/59/55 27/58/54 1/57/54
f 10/59/55 25/60/55 27/58/54
f 12/61/56 25/60/55 10/59/55
f 12/61/56 24/62/56 25/60/55
f 14/63/57 24/62/56 12/61/56
f 14/63/57 23/64/58 24/62/56
f 20/65/59 23/64/58 14/63/57
f 20/65/59 21/66/59 23/64/58
f 13/67/60 39/68/61 40/69/61
f 13/67/60 36/70/60 39/68/61
f 9/71/62 36/70/60 13/67/60
f 9/71/62 35/72/62 36/70/60
f 8/73/63 35/72/62 9/71/62
f 8/73/63 34/74/64 35/72/62
f 51/75/65 34/74/64 8/73/63
f 8/73/63 7/76/66 51/75/65
f 34/74/64 51/75/65 33/77/67
f 52/78/68 51/75/65 7/76/66
f 52/78/68 33/77/67 51/75/65
f 52/78/68 7/76/66 6/79/69
f 52/78/68 32/80/70 33/77/67
f 52/78/68 6/79/69 2/81/71
f 52/78/68 30/82/72 32/80/70
f 2/81/71 30/82/72 52/78/68
f 43/83/73 30/82/72 2/81/71
f 43/83/73 50/84/74 30/82/72
f 45/85/75 50/84/74 43/83/73
f 45/85/75 47/86/75 50/84/74
